<svg xmlns="http://www.w3.org/2000/svg" viewBox="0 0 894.42 209.07"><defs><style>.a{fill:#fff7bd;}.b{opacity:0.1;}.c{fill:#fff;}.d{fill:#c2ffe8;}.e{fill:#ffb27a;}.f{fill:#ffdca3;}</style></defs><title>Asset 2</title><path class="a" d="M162.49,122.89c22.59,16.93,14.81,50.76-3.46,67.74-21.35,19.83-125,23.53-141.34,11.74-10.42-7.5-10.52-20.79-10-32.44.77-18.26,1.89-36.25,2.14-54.58S7.85,57,16.26,28.49s73.41-20.56,88-18,50.93,11.27,62.26,32.21C182.49,72.2,143,94.89,162.49,122.89ZM60.41,64.36c-5.45,6.13-2.62,21.06,1.8,26.92,8.66,11.48,28.71,9.1,40.17,3.28C145.27,72.78,76.38,46.39,60.41,64.36Zm53.22,98.08c16-6.62,4.85-24.21-5.4-30.32-10.94-6.52-33.4-10.32-44.9-3.77-13.93,7.93-10.52,28.22,1.76,36.38C77.67,173.08,101.13,169.38,113.63,162.44Z"/><path class="b" d="M162.49,122.89c22.59,16.93,14.81,50.76-3.46,67.74-21.35,19.83-125,23.53-141.34,11.74-10.42-7.5-10.52-20.79-10-32.44.77-18.26,1.89-36.25,2.14-54.58S7.85,57,16.26,28.49s73.41-20.56,88-18,50.93,11.27,62.26,32.21C182.49,72.2,143,94.89,162.49,122.89ZM60.41,64.36c-5.45,6.13-2.62,21.06,1.8,26.92,8.66,11.48,28.71,9.1,40.17,3.28C145.27,72.78,76.38,46.39,60.41,64.36Zm53.22,98.08c16-6.62,4.85-24.21-5.4-30.32-10.94-6.52-33.4-10.32-44.9-3.77-13.93,7.93-10.52,28.22,1.76,36.38C77.67,173.08,101.13,169.38,113.63,162.44Z"/><path class="a" d="M155,115.38c22.59,16.93,14.81,50.76-3.46,67.74-21.35,19.83-125,23.53-141.34,11.74-10.42-7.5-10.52-20.79-10-32.44C.92,144.16,2,126.17,2.28,107.84S.34,49.48,8.75,21,82.16.42,96.77,3,147.7,14.26,159,35.2C175,64.69,135.46,87.38,155,115.38ZM52.9,56.85C47.45,63,50.28,77.91,54.7,83.77c8.66,11.48,28.71,9.1,40.17,3.28C137.76,65.27,68.86,38.88,52.9,56.85Zm53.22,98.08c16-6.62,4.85-24.21-5.4-30.32-10.94-6.52-33.41-10.32-44.9-3.77-13.93,7.93-10.52,28.22,1.75,36.38C70.15,165.57,93.61,161.87,106.12,154.93Z"/><path class="c" d="M51.82,8.16c-19.07-1.93-41.6,9.5-39.32,31.52.19,1.9,3.2,1.92,3,0C13.37,19.19,34.3,9.38,51.82,11.16c1.92.19,1.9-2.81,0-3Z"/><path class="c" d="M11.15,49.56v12a1.5,1.5,0,0,0,3,0v-12a1.5,1.5,0,0,0-3,0Z"/><path class="c" d="M100.21,97.37A23,23,0,0,0,119,80.93a1.5,1.5,0,0,0-2.89-.8A20.14,20.14,0,0,1,99.41,94.48c-1.9.27-1.09,3.16.8,2.89Z"/><path class="c" d="M106.8,168.57a19.38,19.38,0,0,0,17.5-16.46c.26-1.89-2.63-2.71-2.89-.8a16.44,16.44,0,0,1-14.61,14.26c-1.9.17-1.92,3.17,0,3Z"/><path class="d" d="M334.72,166.69c32.44,42.09-37.11,31.77-55.84,31.74-17,0-67.56,6.57-75.46-25.7s-7-119.35,1.75-133.28S224.45,21,236.47,21s40.14,1.25,63.09,0c13.39-.74,35.75,2,42,18,6.93,17.67-10.37,25.53-24.54,26.34-13.4.76-84.14-10.28-65.08,20.32,10.64,17.07,32.23,9.89,48.16,9.6,14-.26,38.74,13.42,23.64,30.23-13.51,15-43.29,1.3-60.38,5-27.13,5.89-12.24,32.49,8.27,35.39C283.11,167.56,323.59,151.7,334.72,166.69Z"/><path class="b" d="M334.72,166.69c32.44,42.09-37.11,31.77-55.84,31.74-17,0-67.56,6.57-75.46-25.7s-7-119.35,1.75-133.28S224.45,21,236.47,21s40.14,1.25,63.09,0c13.39-.74,35.75,2,42,18,6.93,17.67-10.37,25.53-24.54,26.34-13.4.76-84.14-10.28-65.08,20.32,10.64,17.07,32.23,9.89,48.16,9.6,14-.26,38.74,13.42,23.64,30.23-13.51,15-43.29,1.3-60.38,5-27.13,5.89-12.24,32.49,8.27,35.39C283.11,167.56,323.59,151.7,334.72,166.69Z"/><path class="d" d="M327.21,159.18c32.43,42.09-37.11,31.77-55.84,31.74-17,0-67.56,6.57-75.46-25.7s-7-119.35,1.75-133.28S216.94,13.51,229,13.51s40.14,1.25,63.09,0c13.39-.74,35.75,2,42,18,6.93,17.67-10.37,25.53-24.54,26.34-13.4.76-84.14-10.28-65.08,20.32,10.63,17.07,32.22,9.88,48.16,9.59,14-.25,38.74,13.43,23.64,30.24-13.51,15.05-43.29,1.3-60.38,5-27.13,5.89-12.24,32.49,8.26,35.39C275.6,160.05,316.08,144.19,327.21,159.18Z"/><path class="c" d="M228.19,19.76c-13,3.64-27.63,9.79-29.37,25-.22,1.91,2.79,1.9,3,0C203.39,31.1,217.53,25.86,229,22.65a1.5,1.5,0,0,0-.79-2.89Z"/><path class="c" d="M307.28,105.89A21.69,21.69,0,0,1,292,115.2c-1.89.23-1.91,3.23,0,3a25,25,0,0,0,17.87-10.8c1.1-1.59-1.5-3.1-2.59-1.51Z"/><path class="e" d="M485.37,162.56c-16.48-9.94-48-10.41-65.2-2.2-15.84,7.56-21.5,27.91-37.43,35.51-7.37,3.52-13.39,3.51-18.9-3.49-9.26-11.75-1.93-28.16,3.32-39.18,12-25.15,18.27-47.71,28.54-73.6,7.12-18,23.5-46.35,45.39-50.66,16.8-3.3,30.1,11.31,39,23.55,20,27.59,29.87,61.12,42.8,92.25,5.43,13.07,21.57,45.44,3.12,54.83C502.92,211.29,496.33,173.36,485.37,162.56Zm-26-40.39c12.74-22.37-11.31-50.79-26.29-20.51-4.33,8.77-9.08,21.74,1.15,28.59C442.8,136,454.72,130.35,459.37,122.17Z"/><path class="b" d="M485.37,162.56c-16.48-9.94-48-10.41-65.2-2.2-15.84,7.56-21.5,27.91-37.43,35.51-7.37,3.52-13.39,3.51-18.9-3.49-9.26-11.75-1.93-28.16,3.32-39.18,12-25.15,18.27-47.71,28.54-73.6,7.12-18,23.5-46.35,45.39-50.66,16.8-3.3,30.1,11.31,39,23.55,20,27.59,29.87,61.12,42.8,92.25,5.43,13.07,21.57,45.44,3.12,54.83C502.92,211.29,496.33,173.36,485.37,162.56Zm-26-40.39c12.74-22.37-11.31-50.79-26.29-20.51-4.33,8.77-9.08,21.74,1.15,28.59C442.8,136,454.72,130.35,459.37,122.17Z"/><path class="e" d="M477.86,155.05c-16.48-9.94-48-10.41-65.2-2.2-15.84,7.56-21.5,27.91-37.43,35.51-7.37,3.52-13.39,3.51-18.9-3.49-9.26-11.76-1.93-28.16,3.31-39.18,12-25.15,18.28-47.71,28.55-73.6,7.12-18,23.5-46.35,45.39-50.66,16.8-3.3,30.09,11.3,39,23.55,20,27.59,29.87,61.12,42.8,92.24,5.43,13.08,21.57,45.45,3.12,54.84C495.4,203.78,488.82,165.85,477.86,155.05Zm-26-40.4c12.74-22.36-11.31-50.78-26.29-20.5-4.33,8.77-9.08,21.74,1.15,28.59C435.29,128.47,447.21,122.84,451.86,114.65Z"/><path class="c" d="M433,31.16a38,38,0,0,0-29.16,24.21c-.69,1.81,2.21,2.59,2.89.8a35.06,35.06,0,0,1,27.07-22.12c1.9-.32,1.09-3.21-.8-2.89Z"/><path class="c" d="M441.17,133.66A35.86,35.86,0,0,0,464.79,118c1.07-1.62-1.53-3.12-2.6-1.52a32.91,32.91,0,0,1-21.82,14.25c-1.9.34-1.09,3.24.8,2.89Z"/><path class="f" d="M583.4,187.91c-58.87-25.13-47.56-111.64-4.16-144.21,21.62-16.22,47.58-23.76,74.19-18.76,15.6,2.93,44.66,9.21,50.83,26.61,8.59,24.25-18.44,24.88-33.46,20.8-20.46-5.55-37.21-11.77-57.41.32-51.83,31-4.95,116.7,48,86.84,11.72-6.61,24.88-14.26,36.8-1.89s-.14,25.15-11.51,32.24C656.61,208.63,613.13,205.46,583.4,187.91Z"/><path class="b" d="M583.4,187.91c-58.87-25.13-47.56-111.64-4.16-144.21,21.62-16.22,47.58-23.76,74.19-18.76,15.6,2.93,44.66,9.21,50.83,26.61,8.59,24.25-18.44,24.88-33.46,20.8-20.46-5.55-37.21-11.77-57.41.32-51.83,31-4.95,116.7,48,86.84,11.72-6.61,24.88-14.26,36.8-1.89s-.14,25.15-11.51,32.24C656.61,208.63,613.13,205.46,583.4,187.91Z"/><path class="f" d="M575.89,180.4C517,155.27,528.33,68.75,571.73,36.19,593.34,20,619.31,12.42,645.92,17.43c15.6,2.93,44.66,9.21,50.83,26.61,8.59,24.25-18.44,24.88-33.46,20.8-20.46-5.55-37.21-11.77-57.41.32-51.83,31-5,116.7,48,86.84,11.72-6.61,24.88-14.26,36.8-1.9s-.14,25.16-11.51,32.25C649.1,201.12,605.61,198,575.89,180.4Z"/><path class="c" d="M610.4,25a123.82,123.82,0,0,0-42.92,23.58c-1.47,1.24.66,3.35,2.13,2.12a120.08,120.08,0,0,1,41.58-22.81c1.84-.58,1.06-3.47-.79-2.89Z"/><path class="c" d="M560.05,59.23a21.5,21.5,0,0,0-7.27,19c.23,1.89,3.23,1.91,3,0a18.75,18.75,0,0,1,6.39-16.85c1.46-1.27-.67-3.38-2.12-2.12Z"/><path class="c" d="M681.35,157a65.58,65.58,0,0,1-15,19.05c-1.45,1.28.67,3.4,2.12,2.13a67.78,67.78,0,0,0,15.42-19.67c.9-1.71-1.69-3.23-2.59-1.51Z"/><path class="d" d="M887.79,25.55C895.91,33,894.13,65,894.41,82.6s-3.77,47.78-3,70.6c.5,14.65,4.66,36.79-10.88,46.18-10.4,6.29-28,4.18-33-7.63-8.31-19.59,17.21-58.35-17.07-60.79-22.89-1.63-59.48-7.34-59.33,24,.08,16.37,11.06,43.51-12.82,47-11.45,1.68-22.2-2.2-25-13.63-4.85-19.77-2.58-46.25-2.58-66.67,0-18,.31-36.14-1.5-54.08-1.32-13.1-3.23-31.56,10.07-39.51,8.82-5.28,26.66-5.52,33.78,2.75,10.06,11.68-.23,31.74,1.19,45.2,1.82,17.34,13,18.79,28.08,18.64,11.59-.12,31,4,40.3-4.65,13.79-12.75-3.39-37.41,3-53C851.8,21.56,879.67,18.07,887.79,25.55Z"/><path class="b" d="M887.79,25.55C895.91,33,894.13,65,894.41,82.6s-3.77,47.78-3,70.6c.5,14.65,4.66,36.79-10.88,46.18-10.4,6.29-28,4.18-33-7.63-8.31-19.59,17.21-58.35-17.07-60.79-22.89-1.63-59.48-7.34-59.33,24,.08,16.37,11.06,43.51-12.82,47-11.45,1.68-22.2-2.2-25-13.63-4.85-19.77-2.58-46.25-2.58-66.67,0-18,.31-36.14-1.5-54.08-1.32-13.1-3.23-31.56,10.07-39.51,8.82-5.28,26.66-5.52,33.78,2.75,10.06,11.68-.23,31.74,1.19,45.2,1.82,17.34,13,18.79,28.08,18.64,11.59-.12,31,4,40.3-4.65,13.79-12.75-3.39-37.41,3-53C851.8,21.56,879.67,18.07,887.79,25.55Z"/><path class="d" d="M880.28,18c8.12,7.48,6.34,39.43,6.62,57.05s-3.78,47.78-3,70.6c.5,14.65,4.66,36.79-10.88,46.18-10.4,6.29-28,4.18-33-7.63-8.31-19.59,17.21-58.35-17.07-60.79-22.9-1.63-59.48-7.34-59.33,24,.08,16.37,11.06,43.51-12.82,47-11.45,1.68-22.2-2.2-25-13.63-4.85-19.77-2.58-46.25-2.58-66.67,0-18,.31-36.14-1.5-54.08-1.32-13.1-3.23-31.56,10.06-39.51,8.83-5.28,26.67-5.52,33.79,2.75,10.06,11.68-.23,31.74,1.19,45.2,1.82,17.34,13,18.79,28.08,18.64,11.59-.12,31,4,40.29-4.65,13.8-12.75-3.38-37.41,3-53C844.29,14.05,872.16,10.56,880.28,18Z"/><path class="c" d="M751.52,23.69a32.2,32.2,0,0,0-24.35,23.84c-.46,1.88,2.43,2.68,2.89.8a29.27,29.27,0,0,1,22.26-21.75c1.88-.41,1.09-3.3-.8-2.89Z"/><path class="c" d="M862.53,21.45a20.06,20.06,0,0,0-16,17.61c-.21,1.92,2.79,1.9,3,0a17.07,17.07,0,0,1,13.76-14.72c1.9-.37,1.1-3.26-.79-2.89Z"/></svg>