<svg xmlns="http://www.w3.org/2000/svg" xmlns:xlink="http://www.w3.org/1999/xlink" viewBox="0 0 960.36 1079"><defs><style>.a{fill:none;}.b{fill:#b4eeff;}.c{fill:#e6e6e6;opacity:0.9;}.d{fill:#b3b3b3;}.e{fill:#ccc;}.f{fill:#5ac6c5;}.g{fill:#10a3c2;}.h{fill:#ffd482;}.i{fill:#2e3192;opacity:0.1;}.j{fill:#f8b474;opacity:0.5;}.k{fill:#c6c6c6;}.l{isolation:isolate;}.m{clip-path:url(#a);}.n{fill:#fff;}.o{fill:#e25d5d;}.p{clip-path:url(#b);}.q{clip-path:url(#c);}.r{fill:#051d3a;opacity:0.26;}</style><clipPath id="a"><path class="a" d="M407,673.05c15.18-16.67-.74-57.24-42-100.56.82-1,1.63-1.92,2.44-2.89,33.08-39.54,46.22-70.2,36.71-80.17,1.4,1.49,3.22,3.5,4.57,5,.93,1.07,2.14,2.54,3,3.65,4,5,6.84,9.29,6.86,9.33,1,1.5,2.28,3.47,3.19,5,1.24,2.06,2.84,4.84,4,7,2,3.75,4.37,8.9,6,12.83,1.45,3.6,3.11,8.51,4.25,12.22.87,2.84,1.89,6.69,2.46,9.61,1.08,5.5,2.09,12.91,2.71,18.48.31,2.85.35,6.67.4,9.54a135,135,0,0,1-1.5,21c-.56,3-1.1,7.08-1.89,10.05-1.59,5.9-3.87,13.75-6,19.46a123.68,123.68,0,0,1-9.4,19.16c-1.71,2.78-4,6.5-5.92,9.13S412.09,667,410,669.6l-1.46,1.71-.76.87Z"/></clipPath><clipPath id="b"><path class="a" d="M202.47,496c2.5-3,6-6.78,8.75-9.5a113,113,0,0,1,9.56-8.6c5.08-3.88,12.11-8.74,17.55-12.13,3.26-2,7.92-4.19,11.36-5.89a87.48,87.48,0,0,1,9.61-4c5.42-1.8,12.73-4,18.29-5.31a137.58,137.58,0,0,1,23.12-2.95c2.85-.09,6.66-.19,9.51-.06a135.37,135.37,0,0,1,14.36,1.18c2.47.42,5.79.89,8.25,1.39,2.8.57,6.49,1.47,9.25,2.19.07,0,7.47,2.05,13.26,4.39,1.73.7,4.05,1.6,5.74,2.39,2.79,1.28,6.48,3.07,9.2,4.5a127.9,127.9,0,0,1,11.56,7c1.5,1,3.87,2.65,6.7,4.81,2.3,1.76,2.3,1.76,6.3,5.14,1.72,1.45,2.32,2,6.19,5.72,1,.91,2.17,2.19,3.09,3.13,9.51,10-3.63,40.63-36.71,80.17-.81,1-1.62,1.93-2.44,2.89C315.25,520.37,247.58,484,213.82,491.32c-6.38,1.38-11.1,4.22-14.21,8.27l1.44-1.83S202.47,496,202.47,496Z"/></clipPath><clipPath id="c"><path class="a" d="M199.61,499.59,200,499l.15-.19h0a3.27,3.27,0,0,1,.28-.37h0l.58-.72.71-.87c.15-.18.27-.36.43-.52h0a2.09,2.09,0,0,0,.14-.17,136.31,136.31,0,0,1,16.92-17c2.46-2.09,5.86-4.73,8.5-6.59a112,112,0,0,1,10.58-6.81c5.54-2.94,13.08-6.6,18.85-9.05,3.47-1.47,8.29-2.89,11.89-4a138.9,138.9,0,0,1,28-4.88c4-.19,9.23-.43,13.19-.26,5.16.23,12,.83,17.17,1.6,3.81.57,8.86,1.61,12.59,2.6,2.06.55,4.8,1.3,6.84,1.95,2.34.75,5.45,1.81,7.75,2.7,1.88.73,4.38,1.72,6.21,2.55,2.8,1.28,6.5,3.07,9.23,4.49,1.31.68,3,1.64,4.29,2.4,4.58,2.75,4.58,2.75,7.51,4.7.74.49,3.41,2.29,6.73,4.83,2.28,1.75,2.28,1.75,6.3,5.14,1.59,1.34,5.33,4.71,9.28,8.85-3.23-3.38-9.07-4.38-17.63-2.53,8.56-1.85,14.4-.85,17.63,2.53h0c1.92,2.08,4.44,4.87,6.25,7,1.41,1.67,3.17,4,4.51,5.74,1.92,2.49,2.89,4,6.47,9.54A133,133,0,0,1,428,523.86c1.24,2.45,2.66,5.83,3.7,8.37a137.08,137.08,0,0,1,6.38,20.36c1.11,5.47,2.23,12.85,2.91,18.39.35,2.84.46,6.66.51,9.52a114.25,114.25,0,0,1-.28,11.56c-.61,6.07-1.79,14.11-2.88,20.11-1.29,7.07-4.62,16-6.41,20.81a125.19,125.19,0,0,1-9.47,19.14c-1.69,2.79-4,6.46-6,9.11S412,667.1,410,669.6c0,0-.61.73-1.31,1.54l-.91,1-.79.87c-3.08,3.39-7.45,5.79-13.16,7C360.1,687.36,292.43,651,242.72,598.9,202.4,556.63,186.27,517,199.61,499.59Z"/></clipPath></defs><title>Asset 4</title><rect class="b" width="960" height="405"/><polygon class="c" points="329.3 107.42 434.13 118.18 493.47 169.79 552.81 221.41 610.17 230.01 641.81 281.63 720.93 331.09 738.73 376.25 277.88 371.95 279.85 171.94 329.3 107.42"/><polygon class="d" points="304.24 67.41 406.44 134.08 473.69 224.41 529.07 243.76 535 306.13 598.3 340.54 647.75 374.95 212.55 372.62 251.84 121.21 304.24 67.41"/><polygon class="e" points="2.59 272.33 73.62 171.15 125.4 160.37 158.35 101.03 217.19 53.56 278.38 53.56 351.34 89.16 370.17 143.75 358.4 203.09 414.41 253.48 405.47 281.43 518.44 331.27 556.1 357.38 574.93 373.52 2.59 373.52 2.59 272.33"/><polygon class="d" points="243.42 95.5 282.72 95.5 298.8 124.64 286.3 132.41 243.42 95.5"/><polygon class="d" points="384.06 323.63 371.95 326.92 396.15 351.59 421.87 338.43 384.06 323.63"/><polygon class="d" points="181.75 191.59 208.84 235.14 240.44 252.47 225.89 273.61 198.31 268.26 207.84 244.58 175.02 223.41 181.75 191.59"/><polygon class="d" points="58.72 287.07 38.15 293.95 44.48 323.2 91.95 336.96 88.79 311.15 58.72 311.15 58.72 287.07"/><polygon class="f" points="221.16 375 264.1 375 240.01 274.82 218.54 364.12 215.92 375 221.16 375"/><polygon class="f" points="185.17 375 135.67 375 140.22 356.02 160.41 272.07 184.28 371.28 185.17 375"/><polygon class="f" points="144.79 375 118.39 375 120.08 368 131.59 320.11 140.22 356.02 144.79 375"/><polygon class="f" points="77.12 375 46.09 375 49.72 359.92 61.6 310.5 76.34 371.76 77.12 375"/><polygon class="f" points="53.35 375 17.71 375 20.02 365.41 35.53 300.89 49.72 359.92 53.35 375"/><polygon class="f" points="22.33 375 0 375 0 360.78 9.45 321.48 20.02 365.41 22.33 375"/><polygon class="f" points="121.77 375 75.56 375 76.34 371.76 81.83 348.93 87.77 324.22 98.66 278.94 109.55 324.22 115.49 348.93 120.08 368 121.77 375"/><polygon class="f" points="98.66 246 73.91 348.93 123.41 348.93 98.66 246"/><polygon class="f" points="98.66 247.37 73.91 324.22 123.41 324.22 98.66 247.37"/><polygon class="f" points="221.16 375 218.54 364.12 210.5 330.69 202.27 364.93 199.85 375 204.69 375 215.92 375 221.16 375"/><polygon class="f" points="204.69 375 183.38 375 184.28 371.28 194.03 330.69 202.27 364.93 204.69 375"/><line class="a" x1="221.16" y1="375" x2="215.92" y2="375"/><polygon class="f" points="477.16 375 520.1 375 496.01 274.82 474.54 364.12 471.92 375 477.16 375"/><polygon class="f" points="441.17 375 391.67 375 396.22 356.02 416.41 272.07 440.27 371.28 441.17 375"/><polygon class="f" points="400.79 375 374.39 375 376.08 368 387.59 320.11 396.22 356.02 400.79 375"/><polygon class="f" points="333.12 375 302.09 375 305.72 359.92 317.6 310.5 332.34 371.76 333.12 375"/><polygon class="f" points="309.35 375 273.71 375 276.02 365.41 291.53 300.89 305.72 359.92 309.35 375"/><polygon class="f" points="278.32 375 252.58 375 265.45 321.48 276.02 365.41 278.32 375"/><polygon class="f" points="377.76 375 331.56 375 332.34 371.76 337.83 348.93 343.77 324.22 354.65 278.94 365.55 324.22 371.49 348.93 376.08 368 377.76 375"/><polygon class="f" points="354.66 246 329.91 348.93 379.41 348.93 354.66 246"/><polygon class="f" points="354.66 247.37 329.91 324.22 379.41 324.22 354.66 247.37"/><polygon class="f" points="477.16 375 474.54 364.12 466.5 330.69 458.27 364.93 455.85 375 460.69 375 471.92 375 477.16 375"/><polygon class="f" points="460.69 375 439.38 375 440.27 371.28 450.03 330.69 458.27 364.93 460.69 375"/><line class="a" x1="477.16" y1="375" x2="471.92" y2="375"/><rect class="g" y="375" width="960" height="372"/><path class="h" d="M960.36,593v486H0V575.67C23.29,584.26,50.57,601,87,601c71.47,0,71.47-2.29,142.93-2.29s71.46,7.76,142.93,7.76,71.45-4.35,142.91-4.35,71.46,4.58,142.93,4.58S730.11,589,801.57,589s71.46,3.91,142.93,3.91C950.22,592.91,955.48,593,960.36,593Z"/><ellipse class="i" cx="566.32" cy="520.48" rx="68.02" ry="23.52"/><polygon class="d" points="554.17 450.5 561.95 458.98 573.16 483.74 582.39 489.04 583.38 506.14 593.94 515.57 602.18 525 529.62 524.36 536.17 455.45 554.17 450.5"/><polygon class="e" points="503.67 504 514.79 471.73 523.02 468.91 528.26 453.4 537.62 441 555 442.5 558.94 450.3 561.93 464.57 560.06 480.07 568.97 493.24 567.54 500.54 585.5 513.57 591.49 520.39 594.48 524.61 503.5 524.61 503.67 504"/><ellipse class="j" cx="251" cy="771" rx="128" ry="25"/><rect class="k" x="296" y="479" width="16" height="187" transform="translate(428.06 -63.72) rotate(39)"/><rect class="k" x="233.66" y="651.35" width="15.89" height="122.73"/><g class="l"><g class="l"><g class="m"><path class="n" d="M411,644.27c3.09,12.35,1.86,22.34-4,28.78l.32-.35.31-.35L408,672l.31-.35.3-.34.3-.35.29-.34.3-.34.28-.34.29-.34c13.34-17.32,18.32-26.45,25.4-46.52,3.29-12.23,6.14-22.79,6.08-41-.38-8.93-.73-17.36-3.44-29.49l-.55-2.3c7.29,29.58-.24,62.69-24,91.13-.8,1-1.63,1.92-2.47,2.85"/><path class="o" d="M366.68,574.31c24.36,25.94,39.55,50.78,44.34,70,.84-.93,1.67-1.89,2.47-2.85,23.79-28.44,31.32-61.55,24-91.13-2.89-10.31-3.13-11.16-5.83-18.06a134.7,134.7,0,0,0-6.87-14.52c-4-7-4.11-7.12-6.68-10.93-4.09-5.77-4.09-5.77-6.42-8.67-3.93-4.72-4.16-5-6.84-7.88,10,10.69-2.75,41.75-35.75,81.19-.81,1-1.62,1.93-2.45,2.89"/></g></g><ellipse class="n" cx="303.84" cy="585.7" rx="51.47" ry="135.17" transform="matrix(0.64, -0.77, 0.77, 0.64, -340.35, 442.94)"/><g class="l"><g class="p"><path class="n" d="M283.64,509.75c27.28,14.69,56.53,36.75,81.31,62.73.83-1,1.64-1.93,2.45-2.89,33.08-39.54,46.22-70.2,36.72-80.16-4.09-4.15-4.09-4.15-6.2-6.1-4.09-3.65-4.09-3.65-6.19-5.37-4.25-3.36-4.25-3.36-6.45-4.94-4.52-3.15-4.61-3.21-7-4.72s-5.48-3.24-7.86-4.58c-34.19-14.67-75,31.52-86.76,46"/><path class="o" d="M214.11,491.26c16.93-3.51,42.25,3.81,69.53,18.49,24.69-30.54,60.44-58.67,86.76-46l-.12-.06c-5.88-3-6.11-3.14-9.5-4.64-6.94-2.88-7.51-3.11-12-4.6a136.19,136.19,0,0,0-16-4.23,146,146,0,0,0-22.61-2.57c-10.48.07-18,.11-31.68,2.81-23.18,4.84-45,17.48-62.06,37.9-.81,1-1.6,1.94-2.37,2.93"/><path class="n" d="M213.82,491.32l.29-.06c.77-1,1.56-2,2.37-2.93,17.08-20.42,38.88-33.06,62.06-37.9l-1,.2c-5.54,1.41-12.86,3.51-18.29,5.31-12.3,5.09-13.3,5.5-21,9.86-11.66,7.39-12.36,7.83-19.08,13.4-10.42,9.51-11.05,10.07-16.78,16.83l-.28.34-.28.34-.29.35c-.08.1-.2.24-.28.35l-.29.35c-.09.11-.2.26-.29.36s-.2.26-.29.36l-.28.37-.29.37-.29.37c3.11-4,7.83-6.89,14.21-8.27"/></g></g><g class="l"><g class="q"><path class="n" d="M370.4,463.72c2.38,1.34,5.53,3.17,7.86,4.58,4.73,3.07,4.73,3.07,7,4.72,4.35,3.23,4.35,3.23,6.45,4.94,4.09,3.44,4.17,3.51,6.19,5.37,4.09,3.89,4.17,4,6.2,6.1a11.75,11.75,0,0,0-7.41-3.31,64.44,64.44,0,0,0-15.55-12c-3.65-5-5.48-7.5-10.76-10.41"/><path class="o" d="M278.54,450.43c10.44-1.78,18-3.07,31.68-2.81,10.62.65,12.54.77,22.61,2.57,9.11,2.08,9.86,2.25,16,4.23,7.61,2.71,7.75,2.76,12,4.6,6.3,2.93,6.3,2.93,9.5,4.64l.12.06c3.52,2.32,7.15,4.71,10.76,10.41-5.21-2.81-10.05-4.21-13.29-3.53-27.31-19.7-59.47-26.41-89.33-20.17"/><path class="n" d="M196.83,527.79c-3.09-11.88-2.26-21.63,2.78-28.2l.29-.37.29-.37.28-.37.29-.36.29-.36.29-.35.28-.35.29-.35.28-.34.28-.34c9.75-10.74,10.13-11.16,16.78-16.83,11-8.5,11.63-9,19.08-13.4,12-6.37,12.77-6.75,21-9.86,5.43-1.77,12.74-3.92,18.29-5.31l1-.2c29.86-6.24,62,.47,89.33,20.17h-.05c-3.2.69-4.21,3.3-3.25,7-56.5-18.16-126.32.58-165.39,47.29-.8,1-1.59,1.94-2.35,2.92"/><path class="o" d="M241.88,598c-24.59-26-40-50.91-45-70.22.76-1,1.55-2,2.35-2.92,39.07-46.71,108.89-65.45,165.39-47.29,1,3.69,3.91,8.46,8.61,13.42-53.35,23-107.64,78.09-131.3,107"/><path class="n" d="M323.1,661.13c-27-14.69-55.88-36.55-80.38-62.23-.29-.3-.57-.59-.84-.89,31.18-38.09,85.57-87.82,131.3-107l.16.17a64.42,64.42,0,0,0,15.37,11.89c1.72,43.34-24.12,108.52-63.19,155.23-.81,1-1.61,1.91-2.42,2.84"/><path class="o" d="M393,680.25c-17.12,3.26-42.56-4.27-69.88-19.12.81-.93,1.61-1.88,2.42-2.84,39.07-46.71,64.91-111.89,63.19-155.23,5.22,2.84,10.08,4.28,13.35,3.66,56.43,94-2.22,169.68-9.08,173.53"/><path class="n" d="M437.52,550.29l.55,2.3c1.69,8.71,3.28,16.94,3.44,29.49-.37,12.1-.71,23.53-6.08,41-7.1,20-12.33,29.6-25.4,46.52l-.29.34-.28.34-.3.34-.29.34-.3.35-.3.34L408,672l-.31.35-.31.35-.32.35c-3.08,3.39-7.45,5.79-13.16,7l-.88.18c33.17-37,50.17-107.09,9.08-173.53l.17,0c3.16-.69,4.18-3.24,3.28-6.85,16.53,13.91,27.33,31.45,32,50.45"/><path class="o" d="M404.88,490.23c4,4.45,4.36,4.81,6.84,7.88,4.13,5.34,4.29,5.55,6.42,8.67,4.17,6.44,4.41,6.83,6.68,10.93a135.54,135.54,0,0,1,6.87,14.52c3.5,9.52,3.95,10.74,5.83,18.06-4.68-19-15.48-36.54-32-50.45-.91-3.66-3.82-8.41-8.47-13.37a13,13,0,0,1,7.84,3.76"/></g></g></g><circle class="k" cx="243" cy="650" r="16"/><circle class="n" cx="243" cy="650" r="8"/><path class="r" d="M441.51,582c0-.52,0-1,0-1.52,0-1,0-2-.08-3.15v-.08l0-.85c0-.16,0-.32,0-.48-.08-1.73-.2-3.48-.38-5-.05-.44-.12-.91-.18-1.38-.09-.92-.2-1.81-.31-2.69-.42-3.78-1.05-7.84-2-12.43,0-.14-.05-.29-.08-.42-.54-2.74-1.46-6.28-2.29-9-.26-.89-.51-1.72-.78-2.57C416.63,586,381.9,634.19,317.49,658l.17.11.65.37c1.49.85,3,1.67,4.45,2.48l.34.19.59.31,1.28.69,1.27.67,1.27.67,1.28.66,1.26.64,1.27.63,1.25.62,1.26.61,1.25.6,1.26.59,1.23.56,1.25.57,1.23.55,1.23.54,1.22.53,1.22.51,1.21.51,1.22.49,1.2.48,1.2.46,1.19.46,1.18.44,1.19.43,1.17.41,1.17.41,1.15.39,1.16.38,1.15.36,1.14.35,1.14.35,1.12.32,1.11.31,1.12.3,1.1.29,1.1.27,1.08.26,1.08.24,1.07.23,1.07.22,1,.21,1,.19,1,.17,1,.16,1,.15,1,.13,1,.12,1,.11,1,.08,1,.08,1,.06.95.05.94,0h2.75l.9,0,.88-.05c.3,0,.59,0,.88-.06l.86-.07.85-.09.84-.11.83-.12.81-.14.37-.06.88-.18c.64-.14,1.26-.3,1.87-.46l.52-.16c.45-.13.89-.27,1.33-.42l.47-.16c.56-.21,1.11-.42,1.64-.66l.18-.08c.46-.21.92-.43,1.36-.67.15-.07.29-.16.44-.24.37-.2.73-.41,1.08-.64.12-.07.25-.14.36-.22.45-.3.89-.6,1.31-.92l.22-.18q.51-.4,1-.84l.35-.32c.3-.28.58-.57.86-.87.06-.06.13-.12.18-.18l.32-.35.31-.35.13-.14,0,0h0l0,0L408,672l.31-.35.3-.34.13-.15,0,0,.07-.09.08-.09.06-.06c.05-.06.09-.12.14-.17l.09-.11,0,0,.13-.14.13-.15.07-.09.5-.59c.74-.93,1.57-2,2.41-3.06,1.42-1.81,2.89-3.7,4.05-5.31.09-.11.17-.24.26-.36h0c1-1.39,2.14-3.09,3.22-4.79.88-1.38,1.74-2.75,2.47-4l.2-.33,0-.06a113.06,113.06,0,0,0,5.55-10.29c1.37-2.83,2.62-5.64,3.58-8.18.09-.23.19-.47.27-.69.28-.72.55-1.47.83-2.25.74-2,1.6-4.45,2.43-7l.09-.25c0-.11.06-.22.1-.33a87.27,87.27,0,0,0,2.71-10.16c.27-1.07.51-2.25.73-3.47q.61-3.09,1-6v-.09c.1-.49.24-1.48.41-2.81.36-2.75.65-5.65.84-8.8.19-2.2.25-4.79.26-7.25,0-.71,0-1.42,0-2.12Z"/></svg>