<svg xmlns="http://www.w3.org/2000/svg" viewBox="0 0 961.11 1079.76"><defs><style>.a{fill:#9799aa;}.b{fill:#385682;}.c{fill:#c9a56b;}.d{fill:#bdc0c9;}.e{fill:#85878c;}.f{fill:#9fa1aa;}.g{fill:#ce99cc;}.h{fill:#dbb389;}.i{fill:#0b3777;opacity:0.11;}</style></defs><title>Asset 3</title><rect class="a" width="961" height="405"/><rect class="b" y="375" width="961" height="372"/><path class="c" d="M961.11,937.5,961,1079.76H0V593.07c56.11.91,61.43,6.51,127.32,6.51,71.68,0,71.68-2.38,143.36-2.38s71.69,7.87,143.38,7.87,71.69-7.66,143.38-7.66,71.68-2.53,143.37-2.53,72.47,15.63,142.38-.25C903.37,581,930.29,555.7,960.5,581V717.22Z"/><polygon class="d" points="744.96 151.61 628.47 160.51 562.53 203.26 496.6 246 432.86 253.13 397.69 295.87 309.78 336.84 290 374.24 802.1 370.68 799.9 205.04 744.96 151.61"/><polygon class="e" points="772.81 119.47 659.24 174.69 584.51 249.49 522.97 265.52 516.38 317.17 446.05 345.66 391.1 374.16 874.69 372.23 831.03 164.03 772.81 119.47"/><polygon class="f" points="961 183.32 961 373.98 472.02 373.98 492.94 360.61 534.78 338.99 660.32 297.71 650.38 274.56 712.62 232.84 699.55 183.7 712.32 156.1 716.03 148.08 720.47 138.49 801.54 109 869.54 109 934.92 148.31 961 183.32"/><polygon class="e" points="840.39 141.74 796.72 141.74 778.85 165.87 792.74 172.3 840.39 141.74"/><polygon class="e" points="684.12 330.66 697.56 333.38 670.67 353.81 642.1 342.91 684.12 330.66"/><polygon class="e" points="908.91 221.31 878.82 257.38 843.7 271.73 859.86 289.24 890.52 284.81 879.92 265.19 916.39 247.66 908.91 221.31"/><ellipse class="g" cx="670.57" cy="824.38" rx="67.57" ry="9.43"/><path class="h" d="M660.41,757.76,727.56,795c4.44,2.47,9.77,1.36,11.89-2.47h0c2.12-3.82.24-8.93-4.2-11.39l-1.38-.76,4.93-8.89c3.59-6.49.4-15.13-7.12-19.3l3.18,1.76,8.88-46.79c1.7-8.93-10.73-15.82-17.4-9.65l-35,32.33,3.18,1.76c-7.53-4.17-16.55-2.3-20.14,4.18l-4.93,8.89-1.37-.76c-4.45-2.47-9.77-1.36-11.9,2.47h0C654.08,750.2,656,755.3,660.41,757.76Z"/><path class="g" d="M648.15,756.87a9.17,9.17,0,0,1,7.84-4.74l0,.12a9.18,9.18,0,0,0,4.39,5.51L727.56,795a8.3,8.3,0,0,0,1.5.67h0a9.19,9.19,0,0,0,8.14-1.1,8.08,8.08,0,0,1-11,9.38c-.39.82-.8,1.63-1.25,2.44a41.76,41.76,0,0,1-74.41-37.8A9.19,9.19,0,0,1,648.15,756.87Z"/><ellipse class="g" cx="704.35" cy="840.29" rx="48.69" ry="11.92" transform="translate(-36.87 32.33) rotate(-2.56)"/><path class="i" d="M667.21,820.79c18-1.79,14.51,3.82,22.45,1.8,22.9-5.84,17.76,2.7,26.72-5.43-12.86-1.68-30-4-46-4H656.58C659.75,816.91,662,821.31,667.21,820.79Z"/><path class="i" d="M687.19,832.47c-41.54,0-75.21-4.83-75.21-10.78,0-1.05,1.06-2.07,3-3-7.28,1.51-11.54,3.32-11.54,5.28,0,5.2,30.25,9.42,67.57,9.42,11.72,0,22.75-.41,32.35-1.14C698.16,832.38,692.75,832.47,687.19,832.47Z"/><path class="i" d="M734.67,829.83c6.17,2.29,9.76,5,9.76,8,0,7.94-25.63,14.37-57.24,14.37h-.12c5.29.24,11,.25,16.92,0,26.86-1.2,48.4-7.51,48.11-14.08C751.94,834.49,745.19,831.54,734.67,829.83Z"/></svg>