<svg xmlns="http://www.w3.org/2000/svg" viewBox="0 0 699.52 194.47"><defs><style>.a{fill:#ffb27a;}.b{opacity:0.1;}.c{fill:#fff;}.d{fill:#c2ffe8;}.e{fill:#ffdca3;}.f{fill:#fff7bd;}</style></defs><title>Asset 4</title><path class="a" d="M170.47,24c8.11,14.78,6.08,37.12,6.87,53.34.91,18.74,1.58,38.31,1.5,57.08-.1,24.63-9.71,67.46-43.66,47.21-26.65-15.91-43.46-46.78-65.77-67.87-8.8-8.33-7.74-1.87-9.24,2.64-3.94,11.82-2.5,23.8-1.5,36.05.75,9.13,2.13,25.51-3,33.91-5.78,9.48-27.32,10.44-35.54,3.89C11.61,183.5,6.8,174,7.6,164.49c1.57-18.69,1.47-39.83,1.5-58.59C9.13,83-.66,22.57,37.85,25.37c27.44,2,41.5,32.64,57.6,51,3.94,4.49,22.51,26.89,29.31,23.57,6.17-3,3.45-15.74,3-21-1.11-13.38-.87-28,4.49-40.76C138.45,23.36,156.44,10.38,170.47,24Z"/><path class="b" d="M170.47,24c8.11,14.78,6.08,37.12,6.87,53.34.91,18.74,1.58,38.31,1.5,57.08-.1,24.63-9.71,67.46-43.66,47.21-26.65-15.91-43.46-46.78-65.77-67.87-8.8-8.33-7.74-1.87-9.24,2.64-3.94,11.82-2.5,23.8-1.5,36.05.75,9.13,2.13,25.51-3,33.91-5.78,9.48-27.32,10.44-35.54,3.89C11.61,183.5,6.8,174,7.6,164.49c1.57-18.69,1.47-39.83,1.5-58.59C9.13,83-.66,22.57,37.85,25.37c27.44,2,41.5,32.64,57.6,51,3.94,4.49,22.51,26.89,29.31,23.57,6.17-3,3.45-15.74,3-21-1.11-13.38-.87-28,4.49-40.76C138.45,23.36,156.44,10.38,170.47,24Z"/><path class="a" d="M163,16.51c8.11,14.78,6.08,37.12,6.87,53.34.91,18.74,1.58,38.31,1.5,57.08-.1,24.63-9.71,67.46-43.66,47.2C101,158.23,84.21,127.36,61.9,106.27c-8.8-8.33-7.74-1.87-9.24,2.64-3.94,11.82-2.51,23.8-1.5,36.05.75,9.12,2.13,25.51-3,33.91-5.78,9.48-27.32,10.44-35.54,3.89C4.1,176-.71,166.46.09,157c1.57-18.69,1.47-39.83,1.5-58.59,0-22.88-9.76-83.33,28.74-80.53,27.44,2,41.51,32.64,57.61,51,3.94,4.49,22.51,26.88,29.31,23.56,6.17-3,3.45-15.73,3-21-1.11-13.37-.87-28,4.49-40.75C130.94,15.85,148.93,2.87,163,16.51Z"/><path class="c" d="M31.3,25A33.53,33.53,0,0,0,10.79,61.21c.3,1.91,3.19,1.1,2.89-.79A30.44,30.44,0,0,1,32.1,27.93c1.77-.71,1-3.62-.8-2.9Z"/><path class="c" d="M156.55,19.53a21.58,21.58,0,0,0-25.1,18.72c-.22,1.91,2.79,1.9,3,0,1.13-10.15,11.28-17.65,21.31-15.83,1.88.35,2.69-2.54.79-2.89Z"/><path class="d" d="M321.09,154.32c-16.48-9.95-48-10.41-65.2-2.21-15.84,7.57-21.5,27.91-37.43,35.52-7.37,3.52-13.39,3.5-18.9-3.49-9.26-11.76-1.93-28.16,3.32-39.18,12-25.15,18.27-47.71,28.54-73.61,7.12-18,23.5-46.34,45.39-50.65,16.8-3.31,30.1,11.3,39,23.55,20,27.58,29.87,61.12,42.8,92.24,5.43,13.07,21.57,45.45,3.12,54.83C338.64,203.05,332.05,165.12,321.09,154.32Zm-26-40.4c12.73-22.37-11.32-50.79-26.3-20.5-4.33,8.77-9.08,21.74,1.15,28.58C278.52,127.74,290.44,122.1,295.1,113.92Z"/><path class="b" d="M321.09,154.32c-16.48-9.95-48-10.41-65.2-2.21-15.84,7.57-21.5,27.91-37.43,35.52-7.37,3.52-13.39,3.5-18.9-3.49-9.26-11.76-1.93-28.16,3.32-39.18,12-25.15,18.27-47.71,28.54-73.61,7.12-18,23.5-46.34,45.39-50.65,16.8-3.31,30.1,11.3,39,23.55,20,27.58,29.87,61.12,42.8,92.24,5.43,13.07,21.57,45.45,3.12,54.83C338.64,203.05,332.05,165.12,321.09,154.32Zm-26-40.4c12.73-22.37-11.32-50.79-26.3-20.5-4.33,8.77-9.08,21.74,1.15,28.58C278.52,127.74,290.44,122.1,295.1,113.92Z"/><path class="d" d="M313.58,146.81c-16.48-9.95-48-10.41-65.2-2.21-15.84,7.57-21.5,27.91-37.43,35.52-7.37,3.52-13.39,3.5-18.9-3.49-9.26-11.76-1.93-28.16,3.31-39.18,12-25.15,18.28-47.71,28.55-73.61,7.12-18,23.5-46.34,45.39-50.65,16.8-3.31,30.1,11.3,39,23.55,20,27.58,29.87,61.12,42.8,92.24,5.43,13.07,21.57,45.45,3.12,54.83C331.13,195.54,324.54,157.61,313.58,146.81Zm-26-40.4c12.74-22.37-11.31-50.79-26.29-20.5-4.33,8.77-9.08,21.74,1.15,28.58C271,120.23,282.93,114.59,287.58,106.41Z"/><path class="c" d="M276.48,20.25c-18.74-.22-35.15,14.55-37.2,33.11-.21,1.92,2.79,1.9,3,0,1.87-17,17.22-30.31,34.2-30.11a1.5,1.5,0,0,0,0-3Z"/><path class="c" d="M278.38,126.87a49.87,49.87,0,0,0,23.67-18.55c1.1-1.59-1.5-3.09-2.59-1.51A46.33,46.33,0,0,1,277.58,124c-1.79.68-1,3.58.8,2.89Z"/><path class="e" d="M547.76,11.3c8.12,7.48,6.34,39.43,6.62,57.05s-3.78,47.78-3,70.6c.5,14.64,4.66,36.78-10.88,46.18-10.4,6.28-28,4.18-33.05-7.63-8.31-19.59,17.21-58.35-17.07-60.79-22.9-1.63-59.48-7.34-59.33,24,.08,16.37,11.06,43.52-12.82,47-11.45,1.67-22.2-2.2-25-13.63-4.85-19.77-2.58-46.25-2.58-66.67,0-18,.31-36.15-1.5-54.08-1.32-13.1-3.23-31.56,10.06-39.52C408,8.53,425.87,8.29,433,16.56c10.06,11.69-.23,31.74,1.19,45.21,1.82,17.34,13,18.78,28.08,18.63,11.59-.11,30.95,4,40.3-4.64,13.79-12.75-3.39-37.41,2.95-53C511.77,7.31,539.64,3.82,547.76,11.3Z"/><path class="b" d="M547.76,11.3c8.12,7.48,6.34,39.43,6.62,57.05s-3.78,47.78-3,70.6c.5,14.64,4.66,36.78-10.88,46.18-10.4,6.28-28,4.18-33.05-7.63-8.31-19.59,17.21-58.35-17.07-60.79-22.9-1.63-59.48-7.34-59.33,24,.08,16.37,11.06,43.52-12.82,47-11.45,1.67-22.2-2.2-25-13.63-4.85-19.77-2.58-46.25-2.58-66.67,0-18,.31-36.15-1.5-54.08-1.32-13.1-3.23-31.56,10.06-39.52C408,8.53,425.87,8.29,433,16.56c10.06,11.69-.23,31.74,1.19,45.21,1.82,17.34,13,18.78,28.08,18.63,11.59-.11,30.95,4,40.3-4.64,13.79-12.75-3.39-37.41,2.95-53C511.77,7.31,539.64,3.82,547.76,11.3Z"/><path class="e" d="M540.25,3.79c8.12,7.48,6.34,39.43,6.62,57.05s-3.78,47.78-3,70.6c.5,14.64,4.66,36.78-10.88,46.18-10.4,6.28-28,4.18-33.05-7.63-8.31-19.59,17.21-58.35-17.07-60.79-22.9-1.63-59.48-7.34-59.33,24,.08,16.37,11.06,43.52-12.82,47-11.45,1.67-22.2-2.2-25-13.63-4.85-19.78-2.58-46.25-2.58-66.67,0-18,.31-36.15-1.5-54.08-1.32-13.1-3.23-31.56,10.06-39.52C400.52,1,418.36.78,425.48,9.05c10.06,11.69-.23,31.74,1.19,45.21,1.82,17.34,13,18.78,28.08,18.63,11.59-.11,30.95,4,40.29-4.64,13.8-12.76-3.38-37.41,3-53C504.26-.2,532.13-3.69,540.25,3.79Z"/><path class="c" d="M411.85,9c-11.44-3.32-23.59,5.47-24.23,17.29-.11,1.93,2.89,1.92,3,0,.53-9.92,10.94-17.15,20.43-14.4a1.5,1.5,0,0,0,.8-2.89Z"/><path class="c" d="M526.06,7.75A17.94,17.94,0,0,0,505.68,24.8c0,1.93,3,1.93,3,0,.2-8.4,8.19-15.38,16.58-14.16,1.89.28,2.71-2.61.8-2.89Z"/><path class="f" d="M626.55,112.74C631.77,97.63,654,91.83,655.25,75c1.85-25.19-25.43-23.74-40.07-15.47-12.09,6.82-44.61,20.49-43.83-7.28.57-20,31.44-30.79,46.88-34.2,19-4.21,46.2-7.66,63.4,3.64,18,11.8,21.44,37.65,14.69,56.71-4,11.39-12.19,19.24-19.4,28.64-6.28,8.17-10.51,19.8-18.58,26.42C642.32,146.6,612.82,135.53,626.55,112.74Zm-5.28,73.81c-27.24-32.9,38.14-52.8,41.28-19.2C664,182.91,632.13,199.66,621.27,186.55Z"/><path class="b" d="M626.55,112.74C631.77,97.63,654,91.83,655.25,75c1.85-25.19-25.43-23.74-40.07-15.47-12.09,6.82-44.61,20.49-43.83-7.28.57-20,31.44-30.79,46.88-34.2,19-4.21,46.2-7.66,63.4,3.64,18,11.8,21.44,37.65,14.69,56.71-4,11.39-12.19,19.24-19.4,28.64-6.28,8.17-10.51,19.8-18.58,26.42C642.32,146.6,612.82,135.53,626.55,112.74Zm-5.28,73.81c-27.24-32.9,38.14-52.8,41.28-19.2C664,182.91,632.13,199.66,621.27,186.55Z"/><path class="f" d="M619,105.22c5.22-15.1,27.46-20.9,28.7-37.74C649.59,42.29,622.3,43.74,607.66,52c-12.08,6.82-44.6,20.49-43.82-7.28.57-20,31.44-30.79,46.88-34.2,19-4.21,46.2-7.66,63.4,3.64,18,11.8,21.44,37.65,14.69,56.71-4,11.38-12.19,19.24-19.4,28.63-6.28,8.18-10.51,19.81-18.58,26.43C634.81,139.09,605.31,128,619,105.22ZM613.76,179c-27.24-32.9,38.14-52.79,41.28-19.2C656.5,175.4,624.62,192.15,613.76,179Z"/><path class="c" d="M578.64,38.87A69.94,69.94,0,0,1,610,26.56c1.89-.24,1.91-3.25,0-3a73.14,73.14,0,0,0-32.87,12.72c-1.56,1.1-.07,3.7,1.52,2.59Z"/><path class="c" d="M634.35,120.56a31,31,0,0,0,17.36-9c1.35-1.38-.77-3.5-2.12-2.13a28.29,28.29,0,0,1-16,8.2c-1.9.3-1.09,3.19.8,2.89Z"/><path class="c" d="M615.52,159.09a11.45,11.45,0,0,1,8.71-5.11c1.91-.15,1.93-3.15,0-3a14.71,14.71,0,0,0-11.3,6.59c-1.07,1.62,1.53,3.12,2.59,1.52Z"/></svg>