<svg xmlns="http://www.w3.org/2000/svg" viewBox="0 0 267.42 137.53"><defs><style>.a{fill:#ffdca3;}.b{opacity:0.1;}.c{fill:#fff;}.d{fill:#fff7bd;}</style></defs><title>Asset 3</title><path class="a" d="M40.22,129C23.85,117.4,11.75,107.7,7.44,87.17,3,66,5.39,44.51,20.4,28c23-25.32,69.91-30.33,97.8-10,25.4,18.55,29.82,61.1,15.09,87.41C115.11,137.94,71.78,143.52,40.22,129ZM92.55,88.29c26.7-13.35,4.71-44.57-16.33-43.54-16.63.81-27.48,10.15-25,26.12C55.38,98.2,73.17,97.39,92.55,88.29Z"/><path class="b" d="M40.22,129C23.85,117.4,11.75,107.7,7.44,87.17,3,66,5.39,44.51,20.4,28c23-25.32,69.91-30.33,97.8-10,25.4,18.55,29.82,61.1,15.09,87.41C115.11,137.94,71.78,143.52,40.22,129ZM92.55,88.29c26.7-13.35,4.71-44.57-16.33-43.54-16.63.81-27.48,10.15-25,26.12C55.38,98.2,73.17,97.39,92.55,88.29Z"/><path class="a" d="M34.78,123.51C18.41,112,6.31,102.26,2,81.73-2.44,60.59,0,39.07,15,22.57c23-25.32,69.9-30.33,97.8-10,25.4,18.55,29.81,61.1,15.09,87.41C109.67,132.5,66.34,138.07,34.78,123.51ZM87.11,82.84c26.7-13.34,4.71-44.56-16.33-43.54-16.63.82-27.48,10.16-25,26.13C49.94,92.76,67.72,92,87.11,82.84Z"/><path class="c" d="M56.7,7A51.18,51.18,0,0,0,18.28,30.9c-1,1.64,1.57,3.15,2.59,1.51A48,48,0,0,1,56.7,10c1.9-.19,1.92-3.19,0-3Z"/><path class="c" d="M13.86,43.9A29,29,0,0,0,8.33,60c-.08,1.94,2.92,1.93,3,0a26.23,26.23,0,0,1,5.12-14.57c1.13-1.56-1.47-3.06-2.59-1.51Z"/><path class="c" d="M104.39,70.5A23,23,0,0,1,83.84,90.06c-1.9.17-1.92,3.17,0,3a25.94,25.94,0,0,0,23.44-21.77c.28-1.88-2.61-2.7-2.89-.79Z"/><path class="d" d="M236.91,134.59c-8.68-4.77-8.2-17.3-12.07-25.19-4.85-9.89-14.36-16.31-25.66-13.61-22.92,5.48,7.32,37-19.2,41.33-29.15,4.79-20.58-33.08-20.49-49.94.08-14.79.22-29.46-.32-44.24-.32-8.91-1-20.44,6-27.2,7.46-7.21,19.17-4.77,28.53-4.45,13,.44,26.19-1.14,38.91,2.24,20.11,5.33,35.27,21.71,34.77,43.16-.27,11.86-5.25,20.27-13.29,28.53s-9.32,11.79-1.32,21c5.72,6.58,19.14,15.23,9.83,25C257.2,137,243.86,136.3,236.91,134.59Zm-11.56-94.2c-8.69-6.92-15.67-6.49-26.13-2.17-12.59,5.19-10.57,14.29-3.26,23.94C215.92,88.53,250,58.71,225.35,40.39Z"/><path class="b" d="M236.91,134.59c-8.68-4.77-8.2-17.3-12.07-25.19-4.85-9.89-14.36-16.31-25.66-13.61-22.92,5.48,7.32,37-19.2,41.33-29.15,4.79-20.58-33.08-20.49-49.94.08-14.79.22-29.46-.32-44.24-.32-8.91-1-20.44,6-27.2,7.46-7.21,19.17-4.77,28.53-4.45,13,.44,26.19-1.14,38.91,2.24,20.11,5.33,35.27,21.71,34.77,43.16-.27,11.86-5.25,20.27-13.29,28.53s-9.32,11.79-1.32,21c5.72,6.58,19.14,15.23,9.83,25C257.2,137,243.86,136.3,236.91,134.59Zm-11.56-94.2c-8.69-6.92-15.67-6.49-26.13-2.17-12.59,5.19-10.57,14.29-3.26,23.94C215.92,88.53,250,58.71,225.35,40.39Z"/><path class="d" d="M231.47,129.15c-8.68-4.77-8.21-17.31-12.07-25.19-4.85-9.89-14.36-16.31-25.66-13.61-22.92,5.48,7.32,37-19.2,41.33-29.16,4.79-20.58-33.09-20.49-49.95.08-14.78.21-29.46-.32-44.23-.32-8.91-1-20.44,6-27.21,7.46-7.2,19.16-4.76,28.53-4.44,13,.44,26.19-1.14,38.91,2.23C247.31,13.42,262.47,29.8,262,51.25c-.28,11.86-5.25,20.27-13.29,28.53s-9.33,11.79-1.32,21c5.71,6.57,19.14,15.22,9.83,25C251.76,131.55,238.42,130.85,231.47,129.15ZM219.9,35c-8.68-6.93-15.66-6.49-26.12-2.18-12.6,5.2-10.57,14.3-3.27,23.95C210.48,83.08,244.58,53.27,219.9,35Z"/><path class="c" d="M175.77,10.39c-13.13-1.86-16.19,12.77-16.62,22.68-.09,1.93,2.91,1.92,3,0,.32-7.5,1.94-21.33,12.83-19.79,1.88.27,2.7-2.62.79-2.89Z"/><path class="c" d="M216,77.1A37.94,37.94,0,0,0,236,65.19c1.27-1.44-.84-3.57-2.12-2.12a35.3,35.3,0,0,1-18.6,11.14c-1.87.44-1.08,3.34.8,2.89Z"/></svg>