<svg xmlns="http://www.w3.org/2000/svg" viewBox="0 0 523.52 129"><defs><style>.a{fill:#458986;}</style></defs><title>Asset 6</title><polygon class="a" points="224.58 129 267.52 129 243.43 28.82 221.96 118.12 219.34 129 224.58 129"/><polygon class="a" points="188.59 129 139.09 129 143.64 110.02 163.83 26.07 187.69 125.28 188.59 129"/><polygon class="a" points="148.21 129 121.81 129 123.5 122 135.01 74.11 143.64 110.02 148.21 129"/><polygon class="a" points="80.54 129 49.51 129 53.14 113.92 65.02 64.5 79.76 125.76 80.54 129"/><polygon class="a" points="56.77 129 21.13 129 23.44 119.41 38.95 54.89 53.14 113.92 56.77 129"/><polygon class="a" points="25.75 129 0 129 12.87 75.48 23.44 119.41 25.75 129"/><polygon class="a" points="125.19 129 78.98 129 79.76 125.76 85.25 102.93 91.19 78.22 102.08 32.94 112.97 78.22 118.91 102.93 123.5 122 125.19 129"/><polygon class="a" points="102.08 0 77.33 102.93 126.83 102.93 102.08 0"/><polygon class="a" points="102.08 1.37 77.33 78.22 126.83 78.22 102.08 1.37"/><polygon class="a" points="224.58 129 221.96 118.12 213.92 84.69 205.69 118.93 203.27 129 208.12 129 219.34 129 224.58 129"/><polygon class="a" points="208.12 129 186.8 129 187.69 125.28 197.45 84.69 205.69 118.93 208.12 129"/><line class="a" x1="224.58" y1="129" x2="219.34" y2="129"/><polygon class="a" points="480.58 129 523.52 129 499.43 28.82 477.96 118.12 475.34 129 480.58 129"/><polygon class="a" points="444.59 129 395.09 129 399.64 110.02 419.83 26.07 443.69 125.28 444.59 129"/><polygon class="a" points="404.21 129 377.81 129 379.5 122 391.01 74.11 399.64 110.02 404.21 129"/><polygon class="a" points="336.54 129 305.51 129 309.14 113.92 321.02 64.5 335.76 125.76 336.54 129"/><polygon class="a" points="312.77 129 277.13 129 279.44 119.41 294.95 54.89 309.14 113.92 312.77 129"/><polygon class="a" points="281.75 129 256 129 268.87 75.48 279.44 119.41 281.75 129"/><polygon class="a" points="381.19 129 334.98 129 335.76 125.76 341.25 102.93 347.19 78.22 358.07 32.94 368.97 78.22 374.91 102.93 379.5 122 381.19 129"/><polygon class="a" points="358.08 0 333.33 102.93 382.83 102.93 358.08 0"/><polygon class="a" points="358.08 1.37 333.33 78.22 382.83 78.22 358.08 1.37"/><polygon class="a" points="480.58 129 477.96 118.12 469.92 84.69 461.69 118.93 459.27 129 464.12 129 475.34 129 480.58 129"/><polygon class="a" points="464.12 129 442.8 129 443.69 125.28 453.45 84.69 461.69 118.93 464.12 129"/><line class="a" x1="480.58" y1="129" x2="475.34" y2="129"/></svg>